<svg width="30" height="30" viewBox="0 0 30 30" fill="none" xmlns="http://www.w3.org/2000/svg">
<rect x="0.5" y="0.5" width="29" height="29" rx="14.5" fill="#72569C"/>
<path d="M10.5 13H10C7.79086 13 6 14.7909 6 17V18C6 20.2091 7.79086 22 10 22H20C22.2091 22 24 20.2091 24 18V17C24 14.7909 22.21 13 20.0009 13C19.8457 13 19.6794 13 19.5 13" stroke="white" stroke-width="1.5"/>
<path d="M11.5302 10.5303C11.4615 10.604 11.3787 10.6631 11.2867 10.7041C11.1947 10.7451 11.0954 10.7671 10.9947 10.7689C10.894 10.7707 10.7939 10.7522 10.7006 10.7144C10.6072 10.6767 10.5223 10.6206 10.4511 10.5494C10.3799 10.4781 10.3238 10.3933 10.286 10.2999C10.2483 10.2065 10.2298 10.1065 10.2316 10.0058C10.2333 9.90509 10.2554 9.80578 10.2964 9.71378C10.3374 9.62178 10.3965 9.53898 10.4702 9.47032L14.4702 5.47032C14.6108 5.32987 14.8014 5.25098 15.0002 5.25098C15.1989 5.25098 15.3895 5.32987 15.5302 5.47032L19.5302 9.47032C19.6038 9.53898 19.6629 9.62178 19.7039 9.71378C19.7449 9.80578 19.767 9.90509 19.7687 10.0058C19.7705 10.1065 19.752 10.2065 19.7143 10.2999C19.6766 10.3933 19.6204 10.4781 19.5492 10.5494C19.478 10.6206 19.3931 10.6767 19.2998 10.7144C19.2064 10.7522 19.1063 10.7707 19.0056 10.7689C18.9049 10.7671 18.8056 10.7451 18.7136 10.7041C18.6216 10.6631 18.5388 10.604 18.4702 10.5303L15.7502 7.81032V17.5003C15.7502 17.6992 15.6711 17.89 15.5305 18.0306C15.3898 18.1713 15.1991 18.2503 15.0002 18.2503C14.8012 18.2503 14.6105 18.1713 14.4698 18.0306C14.3292 17.89 14.2502 17.6992 14.2502 17.5003V7.81032L11.5302 10.5303Z" fill="white"/>
<rect x="0.5" y="0.5" width="29" height="29" rx="14.5" stroke="#72569C"/>
</svg>
